<?xml version="1.0" standalone="no"?>
<!DOCTYPE svg PUBLIC "-//W3C//DTD SVG 1.0//EN" "http://www.w3.org/TR/2001/REC-SVG-20010904/DTD/svg10.dtd">
<svg xmlns="http://www.w3.org/2000/svg" xmlns:xlink="http://www.w3.org/1999/xlink" id="body_1" width="93" height="70">

<g transform="matrix(0.546875 0 0 0.546875 11.5 -0)">
	<g>
        <path d="M64 1.512C 40.507 1.512 21.455002 20.559 21.455002 44.057C 21.455002 62.854 33.645 78.802 50.550003 84.427C 52.676003 84.821 53.457005 83.504005 53.457005 82.380005C 53.457005 81.366005 53.417004 78.01401 53.399006 74.46001C 41.562004 77.033005 39.065006 69.44001 39.065006 69.44001C 37.130005 64.52201 34.341007 63.214012 34.341007 63.214012C 30.481007 60.574013 34.63101 60.628014 34.63101 60.628014C 38.904007 60.928013 41.154007 65.013016 41.154007 65.013016C 44.948006 71.51701 51.107006 69.63602 53.534008 68.54902C 53.917007 65.79902 55.01901 63.92102 56.236008 62.85902C 46.786007 61.78402 36.852005 58.13502 36.852005 41.833023C 36.852005 37.188023 38.514004 33.393024 41.236004 30.413023C 40.794003 29.341022 39.338005 25.013023 41.648003 19.153023C 41.648003 19.153023 45.22 18.011023 53.348003 23.516022C 56.743004 22.57302 60.383003 22.100021 63.998 22.084023C 67.614 22.101023 71.256004 22.574022 74.656 23.516022C 82.776 18.012022 86.343994 19.154022 86.343994 19.154022C 88.659996 25.014023 87.203995 29.341022 86.76199 30.414022C 89.48999 33.39202 91.13999 37.188023 91.13999 41.834023C 91.13999 58.174023 81.18699 61.772022 71.71299 62.82402C 73.23899 64.14402 74.59899 66.734024 74.59899 70.70402C 74.59899 76.39602 74.550995 80.97702 74.550995 82.37802C 74.550995 83.50802 75.31699 84.83602 77.47299 84.41802C 94.36899 78.786026 106.54299 62.844025 106.54299 44.05302C 106.545 20.56 87.497 1.512 64 1.512z" stroke="none" fill="#181616" fill-rule="nonzero" />
        <path d="M37.57 62.596C 37.475 62.808002 37.142 62.871002 36.84 62.726C 36.53 62.586002 36.358 62.299004 36.458 62.086002C 36.548 61.870003 36.882 61.809002 37.191 61.954002C 37.501003 62.094 37.677002 62.384003 37.571003 62.596L37.571003 62.596L37.57 62.596zM39.293 64.52C 39.09 64.70699 38.693 64.619995 38.423 64.322C 38.145 64.025 38.093 63.628 38.299 63.438C 38.507 63.25 38.892 63.338 39.169 63.635C 39.448997 63.934998 39.503998 64.327995 39.292 64.519zM40.97 66.968C 40.710003 67.15 40.283 66.98 40.02 66.601006C 39.758 66.22401 39.758 65.771 40.025 65.588005C 40.289 65.406006 40.709 65.57001 40.975002 65.94501C 41.237003 66.33001 41.237003 66.785 40.97 66.96901zM43.268 69.336C 43.035 69.593 42.538002 69.524 42.175003 69.173C 41.803 68.829994 41.700005 68.342995 41.933002 68.086C 42.170002 67.828995 42.669003 67.901 43.035004 68.249C 43.405003 68.591 43.517002 69.079 43.268005 69.335zM46.44 70.71C 46.336 71.044 45.857998 71.195 45.376 71.054C 44.894 70.908 44.579998 70.518 44.676 70.182C 44.775997 69.846 45.258 69.689 45.743 69.84C 46.223 69.98399 46.538 70.369995 46.439 70.71zM49.92 70.965C 49.933 71.314995 49.524 71.606995 49.017998 71.613C 48.51 71.625 48.098 71.340996 48.092 70.995C 48.092 70.64101 48.492 70.353004 49 70.345C 49.506 70.335 49.92 70.617004 49.92 70.965004zM53.16 70.414C 53.22 70.756004 52.87 71.108 52.367 71.201004C 51.873 71.29301 51.417 71.081 51.353 70.741005C 51.293 70.39101 51.65 70.04101 52.143 69.949005C 52.646 69.86101 53.096 70.067 53.16 70.41501z" stroke="none" fill="#181616" fill-rule="nonzero" />
	</g>
	<g>
        <path d="M24.855 108.302L14.155 108.302C 13.878858 108.302 13.655 108.525856 13.655 108.802L13.655 108.802L13.655 114.034004C 13.655 114.31015 13.878858 114.534004 14.155 114.534004L14.155 114.534004L18.328 114.534004L18.328 121.034004C 18.328 121.034004 17.390999 121.354004 14.797999 121.354004C 11.742 121.354004 7.4709992 120.23801 7.4709992 110.846C 7.4709992 101.453 11.918999 100.216 16.095 100.216C 19.709 100.216 21.265 100.852005 22.257 101.159004C 22.567 101.253006 22.857 100.943 22.857 100.66701L22.857 100.66701L24.050001 95.61201C 24.053923 95.45837 23.982159 95.31259 23.858002 95.22201C 23.455002 94.934006 21.001001 93.562004 14.800002 93.562004C 7.656002 93.562004 0.32800198 96.600006 0.32800198 111.212006C 0.32800198 125.82201 8.718002 127.99901 15.788002 127.99901C 21.642002 127.99901 25.193 125.49701 25.193 125.49701C 25.339 125.41701 25.355001 125.212006 25.355001 125.11701L25.355001 125.11701L25.355001 108.80101C 25.355001 108.524864 25.131144 108.30101 24.855001 108.30101L24.855001 108.30101L24.855 108.302zM79.506 94.81L73.48 94.81C 73.34722 94.810524 73.2201 94.863846 73.12668 94.958206C 73.03326 95.05257 72.98121 95.180214 72.982 95.312996L72.982 95.312996L72.984 106.95699L63.592003 106.95699L63.592003 95.313C 63.5928 95.1804 63.540886 95.0529 63.447678 94.95857C 63.35447 94.86424 63.227608 94.8108 63.095 94.810005L63.095 94.810005L57.07 94.810005C 56.937218 94.81054 56.8101 94.86386 56.71668 94.95822C 56.623253 95.05258 56.5712 95.18023 56.572 95.313L56.572 95.313L56.572 126.843C 56.572 127.12 56.795998 127.346 57.07 127.346L57.07 127.346L63.095 127.346C 63.227783 127.34521 63.354797 127.291626 63.448032 127.19708C 63.541267 127.10253 63.593067 126.974785 63.592003 126.842L63.592003 126.842L63.592003 113.356L72.984 113.356L72.968 126.842C 72.968 127.12 73.192 127.346 73.468 127.346L73.468 127.346L79.506004 127.346C 79.63879 127.34521 79.7658 127.291626 79.85904 127.19708C 79.95227 127.10253 80.00407 126.974785 80.003006 126.842L80.003006 126.842L80.003006 95.312004C 80.003006 95.034004 79.783005 94.810005 79.506004 94.810005zM32.34 95.527C 30.196 95.527 28.456 97.28 28.456 99.45C 28.456 101.617 30.196 103.375 32.34 103.375C 34.486 103.375 36.225 101.617 36.225 99.45C 36.225 97.28 34.484997 95.527 32.34 95.527zM35.296 105.135L29.29 105.135C 29.014002 105.135 28.768002 105.419 28.768002 105.695L28.768002 105.695L28.768002 126.547C 28.768002 127.159996 29.150002 127.341995 29.644001 127.341995L29.644001 127.341995L35.054 127.341995C 35.649002 127.341995 35.794003 127.049995 35.794003 126.536995L35.794003 126.536995L35.794003 120.190994L35.794003 105.63799C 35.794533 105.50538 35.742363 105.37799 35.64897 105.28385C 35.555576 105.189705 35.428608 105.13652 35.296 105.135994zM102.902 105.182L96.922 105.182C 96.78939 105.18305 96.66263 105.23675 96.56961 105.33127C 96.47659 105.42579 96.424934 105.55339 96.425995 105.686L96.425995 105.686L96.425995 121.145996C 96.425995 121.145996 94.906 122.256 92.75099 122.256C 90.595985 122.256 90.023994 121.279 90.023994 119.168L90.023994 119.168L90.023994 105.686C 90.02506 105.553215 89.97327 105.42547 89.880035 105.33092C 89.7868 105.236374 89.65978 105.18279 89.52699 105.182L89.52699 105.182L83.45899 105.182C 83.18253 105.1842 82.959885 105.40952 82.96099 105.686L82.96099 105.686L82.96099 120.187996C 82.96099 126.45799 86.45599 127.992 91.26299 127.992C 95.20699 127.992 98.38699 125.812 98.38699 125.812C 98.38699 125.812 98.536995 126.962 98.606995 127.097C 98.676994 127.233 98.854 127.37 99.047 127.37L99.047 127.37L102.907 127.353004C 103.04013 127.35247 103.16761 127.29907 103.261375 127.20456C 103.35515 127.11004 103.407524 126.98214 103.407 126.84901L103.407 126.84901L103.404 105.68301C 103.40291 105.40699 103.18001 105.1832 102.904 105.18101zM119.244 104.474C 115.84801 104.474 113.538 105.989 113.538 105.989L113.538 105.989L113.538 95.312C 113.5388 95.17939 113.48689 95.051895 113.393684 94.957565C 113.300476 94.863235 113.173615 94.80979 113.041 94.809L113.041 94.809L107 94.809C 106.866875 94.809006 106.739235 94.86209 106.645386 94.95651C 106.55153 95.05093 106.49921 95.17888 106.5 95.312L106.5 95.312L106.5 126.841995C 106.49921 126.97511 106.55153 127.103065 106.645386 127.19748C 106.739235 127.2919 106.866875 127.344986 107 127.34499L107 127.34499L111.192 127.34499C 111.382 127.34499 111.524 127.24799 111.629 127.076996C 111.731995 126.907 111.882996 125.62299 111.882996 125.62299C 111.882996 125.62299 114.353 127.96299 119.031 127.96299C 124.520996 127.96299 127.671 125.17899 127.671 115.46099C 127.671 105.74299 122.641 104.47299 119.243 104.47299zM116.884 122.238C 114.811005 122.174995 113.404 121.234 113.404 121.234L113.404 121.234L113.404 111.249C 113.404 111.249 114.792 110.399 116.493996 110.245C 118.646996 110.052 120.72199 110.703 120.72199 115.839005C 120.72199 121.256004 119.786995 122.325005 116.884995 122.23701zM53.195 122.12C 52.932 122.12 52.258 122.227005 51.565 122.227005C 49.344997 122.227005 48.592 121.19501 48.592 119.85901L48.592 119.85901L48.592 110.99301L53.112 110.99301C 53.245304 110.99302 53.37309 110.93979 53.466972 110.84515C 53.560856 110.75052 53.613064 110.622314 53.612 110.48901L53.612 110.48901L53.612 105.63301C 53.61253 105.50005 53.560085 105.37237 53.466263 105.27817C 53.372437 105.18396 53.244953 105.13101 53.112 105.13101L53.112 105.13101L48.592 105.13101L48.585 99.16101C 48.585 98.93401 48.468998 98.821014 48.207 98.821014L48.207 98.821014L42.047 98.821014C 41.809002 98.821014 41.68 98.92702 41.68 99.15601L41.68 99.15601L41.68 105.32601C 41.68 105.32601 38.593002 106.071014 38.385002 106.13101C 38.17167 106.19324 38.025 106.388794 38.025 106.611015L38.025 106.611015L38.025 110.488014C 38.024204 110.62063 38.07612 110.74812 38.169327 110.84245C 38.262535 110.93678 38.389397 110.99023 38.522003 110.99101L38.522003 110.99101L41.680004 110.99101L41.680004 120.319016C 41.680004 127.249016 46.540005 127.929016 49.820004 127.929016C 51.317005 127.929016 53.110004 127.44901 53.406002 127.33902C 53.586002 127.27202 53.689003 127.08702 53.689003 126.88602L53.689003 126.88602L53.693005 122.62102C 53.688747 122.34633 53.467674 122.124374 53.193005 122.11902z" stroke="none" fill="#100E0F" fill-rule="nonzero" />
	</g>
</g>
</svg>