<?xml version="1.0" encoding="UTF-8"?>
<svg xmlns="http://www.w3.org/2000/svg" xmlns:xlink="http://www.w3.org/1999/xlink" width="60px" height="60px" viewBox="0 0 60 60" version="1.1">
<g id="surface1">
<path style=" stroke:none;fill-rule:nonzero;fill:rgb(4.705882%,3.137255%,14.117647%);fill-opacity:1;" d="M 5.9375 6.59375 L 54.0625 6.59375 L 54.0625 53.40625 L 5.9375 53.40625 Z M 5.9375 6.59375 "/>
<path style=" stroke:none;fill-rule:nonzero;fill:rgb(19.215686%,77.254902%,94.117647%);fill-opacity:1;" d="M 5.9375 6.59375 L 54.0625 6.59375 L 54.0625 53.40625 L 5.9375 53.40625 Z M 3.75 55.59375 L 56.25 55.59375 L 56.25 4.40625 L 3.75 4.40625 Z M 39.144531 25.40625 C 37.414062 25.40625 36.824219 26.28125 36.824219 27.003906 C 36.824219 27.792969 37.21875 28.339844 39.539062 29.539062 C 42.972656 31.203125 44.039062 32.800781 44.039062 35.140625 C 44.039062 38.640625 41.371094 40.523438 37.761719 40.523438 C 36.210938 40.578125 34.671875 40.257812 33.277344 39.585938 C 33.121094 39.519531 33.101562 39.410156 33.101562 39.234375 L 33.101562 36.015625 C 33.101562 35.796875 33.210938 35.730469 33.363281 35.839844 C 34.675781 36.683594 36.203125 37.132812 37.761719 37.128906 C 39.488281 37.128906 40.210938 36.410156 40.210938 35.425781 C 40.210938 34.636719 39.707031 33.9375 37.5 32.800781 C 34.390625 31.3125 33.101562 29.800781 33.101562 27.285156 C 33.101562 24.464844 35.308594 22.125 39.140625 22.125 C 40.472656 22.066406 41.800781 22.277344 43.054688 22.738281 C 43.199219 22.832031 43.285156 23 43.273438 23.175781 L 43.273438 26.175781 C 43.273438 26.347656 43.164062 26.460938 42.945312 26.394531 C 41.789062 25.730469 40.472656 25.386719 39.140625 25.410156 Z M 20.332031 28.007812 C 20.832031 28.050781 21.226562 28.050781 22.101562 28.050781 C 24.660156 28.050781 27.066406 27.15625 27.066406 23.675781 C 27.066406 20.898438 25.339844 19.5 22.429688 19.5 C 21.554688 19.5 20.722656 19.542969 20.332031 19.566406 Z M 16.4375 16.382812 C 16.4375 16.230469 16.742188 16.121094 16.917969 16.121094 C 18.320312 16.054688 20.394531 16.011719 22.5625 16.011719 C 28.621094 16.011719 30.984375 19.335938 30.984375 23.582031 C 30.984375 29.136719 26.957031 31.523438 22.015625 31.523438 C 21.1875 31.523438 20.902344 31.480469 20.308594 31.480469 L 20.308594 39.878906 C 20.308594 40.054688 20.246094 40.140625 20.046875 40.140625 L 16.699219 40.140625 C 16.527344 40.140625 16.4375 40.078125 16.4375 39.878906 Z M 16.4375 16.382812 "/>
</g>
</svg>
