<?xml version="1.0" encoding="UTF-8"?>
<svg xmlns="http://www.w3.org/2000/svg" xmlns:xlink="http://www.w3.org/1999/xlink" width="65px" height="65px" viewBox="0 0 65 65" version="1.1">
<g id="surface1">
<path style=" stroke:none;fill-rule:evenodd;fill:rgb(79.607843%,40%,60%);fill-opacity:1;" d="M 0.617188 28.515625 C 0.617188 28.875 0.722656 29.109375 0.78125 29.339844 C 1.167969 30.828125 1.992188 32.105469 2.972656 33.273438 C 4.367188 34.933594 6.074219 36.269531 7.824219 37.527344 C 9.339844 38.621094 10.886719 39.6875 12.410156 40.769531 C 12.671875 40.953125 12.921875 41.167969 13.203125 41.394531 C 12.960938 41.527344 12.757812 41.644531 12.546875 41.75 C 10.535156 42.773438 8.601562 43.914062 6.820312 45.300781 C 5.742188 46.132812 4.703125 47.019531 3.972656 48.179688 C 2.789062 50.046875 2.371094 52.03125 3.253906 54.152344 C 3.507812 54.773438 3.902344 55.308594 4.453125 55.703125 C 4.632812 55.832031 4.835938 55.957031 5.042969 56.007812 C 5.582031 56.132812 6.128906 56.21875 6.671875 56.316406 L 8.214844 56.316406 C 9.917969 56.164062 11.46875 55.582031 12.867188 54.613281 C 15.058594 53.101562 16.53125 51.078125 17.167969 48.476562 C 17.628906 46.585938 17.648438 44.695312 17.105469 42.8125 C 17.054688 42.636719 16.988281 42.46875 16.925781 42.296875 C 16.859375 42.128906 16.78125 41.964844 16.6875 41.753906 L 20.179688 39.746094 L 20.234375 39.789062 C 20.167969 39.996094 20.101562 40.203125 20.042969 40.414062 C 19.628906 41.929688 19.355469 43.472656 19.453125 45.042969 C 19.558594 46.71875 20.027344 48.289062 21.007812 49.6875 C 21.800781 50.820312 23.691406 50.863281 24.535156 49.726562 C 24.832031 49.324219 25.121094 48.902344 25.339844 48.449219 C 25.910156 47.273438 26.4375 46.078125 26.980469 44.890625 L 27.074219 44.671875 C 27.035156 45.234375 26.992188 45.730469 26.96875 46.226562 C 26.9375 46.996094 26.984375 47.765625 27.246094 48.5 C 27.472656 49.128906 27.855469 49.597656 28.578125 49.679688 C 29.070312 49.738281 29.460938 49.511719 29.824219 49.226562 C 30.390625 48.78125 30.847656 48.226562 31.191406 47.601562 C 32.15625 45.828125 33.148438 44.066406 34.023438 42.25 C 34.96875 40.285156 35.796875 38.261719 36.675781 36.261719 L 36.820312 35.90625 C 37.027344 36.722656 37.171875 37.523438 37.441406 38.277344 C 37.75 39.15625 38.132812 40.011719 38.550781 40.847656 C 38.75 41.242188 38.726562 41.496094 38.453125 41.824219 C 37.304688 43.207031 36.179688 44.605469 35.054688 46 C 34.804688 46.308594 34.554688 46.625 34.347656 46.960938 C 34.222656 47.164062 34.140625 47.414062 34.105469 47.652344 C 34.035156 48.109375 34.320312 48.550781 34.804688 48.652344 C 35.253906 48.75 35.726562 48.785156 36.179688 48.753906 C 37.753906 48.636719 39.183594 48.085938 40.445312 47.148438 C 42.082031 45.9375 42.605469 44.285156 42.210938 42.324219 C 42.101562 41.792969 41.914062 41.277344 41.726562 40.761719 C 41.644531 40.53125 41.640625 40.371094 41.789062 40.15625 C 43.097656 38.289062 44.214844 36.304688 45.253906 34.28125 C 45.296875 34.199219 45.339844 34.121094 45.410156 34.035156 C 45.746094 35.785156 46.253906 37.476562 47.160156 39.007812 C 46.699219 39.453125 46.238281 39.859375 45.824219 40.304688 C 44.910156 41.285156 44.121094 42.351562 43.707031 43.652344 C 43.527344 44.214844 43.390625 44.785156 43.472656 45.382812 C 43.59375 46.3125 44.355469 46.917969 45.269531 46.703125 C 47.226562 46.253906 48.917969 45.328125 50.152344 43.695312 C 50.980469 42.597656 51.058594 41.371094 50.710938 40.085938 C 50.613281 39.734375 50.5 39.390625 50.378906 38.992188 C 50.863281 38.839844 51.332031 38.660156 51.820312 38.550781 C 54.347656 37.972656 56.847656 38.074219 59.285156 38.984375 C 60.707031 39.519531 61.855469 40.410156 62.539062 41.816406 C 63.371094 43.53125 62.910156 45.160156 61.292969 46.242188 C 61.144531 46.34375 60.96875 46.425781 60.84375 46.550781 C 60.769531 46.628906 60.722656 46.785156 60.742188 46.890625 C 60.75 46.953125 60.917969 47.03125 61.011719 47.03125 C 61.542969 47.027344 61.972656 46.75 62.386719 46.460938 C 63.425781 45.746094 64.183594 44.777344 64.34375 43.507812 L 64.375 43.414062 L 64.335938 42.585938 C 64.320312 42.535156 64.347656 42.488281 64.347656 42.453125 C 64.125 40.601562 63.136719 39.167969 61.699219 38.042969 C 60.03125 36.738281 58.066406 36.203125 55.984375 36.117188 C 54.292969 36.050781 52.625 36.300781 51.027344 36.882812 C 50.570312 37.046875 50.121094 37.242188 49.664062 37.425781 C 49.601562 37.316406 49.535156 37.207031 49.480469 37.097656 C 49.011719 36.136719 48.441406 35.214844 48.316406 34.109375 C 48.226562 33.328125 48.117188 32.542969 48.300781 31.769531 C 48.480469 31.023438 48.714844 30.289062 48.933594 29.554688 C 49.046875 29.175781 48.96875 28.960938 48.605469 28.792969 C 48.480469 28.734375 48.34375 28.679688 48.207031 28.660156 C 47.320312 28.53125 46.441406 28.605469 45.582031 28.855469 C 45.277344 28.945312 45.054688 29.117188 44.988281 29.453125 C 44.949219 29.644531 44.871094 29.832031 44.816406 30.023438 C 44.589844 30.816406 44.429688 31.625 44.066406 32.382812 C 43.15625 34.277344 42.117188 36.101562 41.050781 37.914062 C 40.9375 38.109375 40.816406 38.300781 40.671875 38.539062 C 40.296875 37.757812 39.898438 37.054688 39.777344 36.234375 C 39.640625 35.300781 39.53125 34.375 39.765625 33.449219 C 39.9375 32.761719 40.160156 32.085938 40.367188 31.40625 C 40.46875 31.082031 40.421875 30.914062 40.128906 30.742188 C 39.980469 30.65625 39.816406 30.582031 39.648438 30.558594 C 38.726562 30.421875 37.816406 30.492188 36.929688 30.78125 C 36.652344 30.867188 36.507812 31.046875 36.425781 31.332031 C 36.175781 32.171875 35.964844 33.03125 35.617188 33.828125 C 34.207031 37.058594 32.757812 40.269531 31.3125 43.484375 C 31.007812 44.152344 30.65625 44.800781 30.316406 45.453125 C 30.230469 45.621094 30.101562 45.765625 29.996094 45.921875 C 29.910156 45.820312 29.875 45.75 29.875 45.679688 C 29.878906 45.265625 29.828125 44.839844 29.90625 44.441406 C 30.144531 43.234375 30.421875 42.03125 30.707031 40.835938 C 30.949219 39.847656 31.226562 38.867188 31.488281 37.886719 C 31.578125 37.558594 31.582031 37.25 31.34375 36.976562 C 30.949219 36.511719 30.117188 36.410156 29.628906 36.769531 L 29.410156 36.890625 L 29.453125 36.539062 C 29.554688 35.789062 29.578125 35.039062 29.371094 34.300781 C 29.113281 33.378906 28.457031 32.847656 27.5 32.878906 C 27.050781 32.890625 26.585938 32.96875 26.171875 33.128906 C 24.433594 33.808594 23.101562 35.015625 21.964844 36.464844 C 21.859375 36.597656 21.726562 36.714844 21.578125 36.796875 C 20.109375 37.613281 18.636719 38.417969 17.164062 39.222656 L 15.523438 40.121094 C 15.085938 39.703125 14.683594 39.265625 14.230469 38.898438 C 12.847656 37.769531 11.4375 36.667969 10.042969 35.550781 C 8.808594 34.5625 7.609375 33.53125 6.695312 32.21875 C 6.011719 31.246094 5.574219 30.175781 5.53125 28.972656 C 5.480469 27.4375 5.914062 26.03125 6.695312 24.726562 C 7.695312 23.054688 9.0625 21.710938 10.5625 20.496094 C 12.148438 19.210938 13.863281 18.121094 15.644531 17.125 C 18.132812 15.734375 20.691406 14.5 23.4375 13.6875 C 26.25 12.851562 29.105469 12.371094 32.050781 12.707031 C 33.210938 12.835938 34.335938 13.101562 35.367188 13.667969 C 36.15625 14.101562 36.804688 14.667969 37.105469 15.554688 C 37.40625 16.429688 37.394531 17.3125 37.191406 18.199219 C 36.769531 19.992188 35.789062 21.472656 34.550781 22.792969 C 32.523438 24.960938 30.050781 26.4375 27.265625 27.410156 C 25.65625 27.972656 24.003906 28.324219 22.304688 28.46875 C 20.917969 28.585938 19.5625 28.460938 18.25 27.980469 C 17.382812 27.660156 16.625 27.171875 16.015625 26.460938 C 15.90625 26.335938 15.769531 26.199219 15.566406 26.316406 C 15.367188 26.433594 15.332031 26.621094 15.398438 26.8125 C 15.511719 27.132812 15.613281 27.464844 15.785156 27.746094 C 16.222656 28.460938 16.855469 28.976562 17.554688 29.421875 C 18.898438 30.277344 20.398438 30.5625 21.953125 30.628906 C 24.3125 30.730469 26.617188 30.378906 28.886719 29.746094 C 32.128906 28.839844 34.945312 27.246094 37.207031 24.726562 C 39.085938 22.628906 40.433594 20.261719 40.71875 17.402344 C 40.859375 16.007812 40.710938 14.644531 40.058594 13.371094 C 39.347656 11.992188 38.222656 10.964844 36.875 10.261719 C 34.914062 9.230469 32.796875 8.632812 30.613281 8.632812 L 28.425781 8.632812 C 25.78125 8.632812 23.222656 9.390625 20.734375 10.296875 C 18.855469 10.980469 17.007812 11.789062 15.214844 12.683594 C 11.316406 14.632812 7.683594 16.984375 4.695312 20.214844 C 3.210938 21.828125 1.953125 23.601562 1.226562 25.695312 C 1.015625 26.308594 0.816406 26.964844 0.664062 27.597656 M 14.800781 45.886719 C 14.632812 48.148438 13.605469 49.984375 11.925781 51.472656 C 10.984375 52.308594 9.902344 52.902344 8.640625 53.113281 C 8.183594 53.1875 7.714844 53.207031 7.273438 53.015625 C 6.640625 52.746094 6.5 52.1875 6.488281 51.589844 C 6.46875 50.636719 6.800781 49.773438 7.257812 48.953125 C 7.855469 47.886719 8.730469 47.070312 9.667969 46.3125 C 11.140625 45.113281 12.738281 44.097656 14.375 43.140625 L 14.496094 43.089844 C 14.75 44.023438 14.871094 44.945312 14.800781 45.886719 Z M 27.574219 36.042969 C 27.457031 36.769531 27.308594 37.492188 27.097656 38.191406 C 26.367188 40.617188 25.425781 42.96875 24.414062 45.289062 C 24.226562 45.71875 23.953125 46.109375 23.714844 46.515625 C 23.679688 46.578125 23.625 46.632812 23.574219 46.683594 C 23.277344 46.976562 23 46.960938 22.851562 46.582031 C 22.679688 46.140625 22.574219 45.667969 22.480469 45.199219 C 22.421875 44.886719 22.4375 44.558594 22.417969 44.238281 C 22.4375 41.957031 23.132812 39.882812 24.3125 37.949219 C 24.800781 37.15625 25.332031 36.394531 26.140625 35.890625 C 26.390625 35.738281 26.667969 35.613281 26.949219 35.535156 C 27.382812 35.414062 27.648438 35.613281 27.574219 36.042969 Z M 36.292969 47.148438 L 39.425781 43.492188 C 39.554688 44.851562 37.246094 47.5625 36.292969 47.148438 Z M 46.296875 44.6875 C 46.074219 44.816406 45.835938 44.90625 45.609375 45.023438 C 45.398438 45.132812 45.332031 45.023438 45.324219 44.84375 C 45.320312 44.722656 45.339844 44.59375 45.371094 44.476562 C 45.796875 42.984375 46.574219 41.710938 47.730469 40.675781 L 47.8125 40.632812 C 48.363281 42.175781 47.726562 43.867188 46.296875 44.6875 Z M 46.296875 44.6875 "/>
</g>
</svg>
